# xmcd CD Database Entry
#
# Track frame offsets:
# 150
# 18002
# 33800
# 52626
# 71521
# 86730
# 101392
# 114328
# 126815
# 141622
# 154042
# 176564
# 190356
# 209408
# 228171
# 245692
# 274224
#
# Disc length: 4507 seconds
#
# Revision: 1
# Processed by: cddbd v1.4PL0 Copyright (c) Steve Scherf et al.
# Submitted via: tcd 2.0b
#
DISCID=e2119911
DTITLE=Les Colocs - Les Années 1992-1995
DYEAR=1900
DGENRE=
TTITLE0=La Rue Principale
TTITLE1=Passe-moé la Puck
TTITLE2=Julie
TTITLE3=Maudit qu'le Monde est Beau
TTITLE4=Je Chante Comme une Casserole
TTITLE5=La Traversée
TTITLE6=La Chanson du Scorpion
TTITLE7=Dédé
TTITLE8=Bon Yeu
TTITLE9=La p'tite Bebitte
TTITLE10=Atrocétomique
TTITLE11=On va Crever en Attendant l'Été (ou l'hiver)
TTITLE12=Ain't Givin' Up
TTITLE13=Séropositif Boogie
TTITLE14=Mauvais Caractère
TTITLE15=Juste une p'tite Nuite
TTITLE16=[data]
EXTD=
EXTT0=
EXTT1=
EXTT2=
EXTT3=
EXTT4=
EXTT5=
EXTT6=
EXTT7=
EXTT8=
EXTT9=
EXTT10=
EXTT11=
EXTT12=
EXTT13=
EXTT14=
EXTT15=
EXTT16=
PLAYORDER=
